<?xml version="1.0" encoding="UTF-8"?>
<svg version="1.1" xmlns="http://www.w3.org/2000/svg" width="275" height="267">
<path d="M0 0 C90.75 0 181.5 0 275 0 C275 88.11 275 176.22 275 267 C184.25 267 93.5 267 0 267 C0 178.89 0 90.78 0 0 Z " fill="#FEFEFD" transform="translate(0,0)"/>
<path d="M0 0 C1.175625 0.01353516 1.175625 0.01353516 2.375 0.02734375 C4.29180055 0.05071937 6.20844191 0.08658347 8.125 0.125 C8.125 0.455 8.125 0.785 8.125 1.125 C7.51914063 1.27195312 6.91328125 1.41890625 6.2890625 1.5703125 C-4.44636659 4.44410429 -12.1018857 9.28855286 -18.875 18.125 C-18.1221875 17.84785156 -17.369375 17.57070313 -16.59375 17.28515625 C-9.45537271 14.85083098 -3.25019131 13.75899618 4.23461914 13.48852539 C9.47467282 13.26531567 14.17058616 12.33794004 19.18359375 10.84375 C47.36698637 3.95697146 78.1654695 11.08578809 102.5546875 25.82421875 C128.34181829 42.09970294 146.60815713 68.28077545 153.875 97.75 C154.9876773 103.27504617 155.28180699 108.45896451 155.203125 114.0859375 C155.19748535 114.86348389 155.1918457 115.64103027 155.18603516 116.44213867 C155.17147451 118.33647907 155.14906237 120.23075646 155.125 122.125 C154.49901004 122.12831015 153.87302008 122.13162029 153.22806072 122.13503075 C138.0052775 122.21620614 122.78260272 122.30828052 107.55996227 122.41252708 C100.19844331 122.4626761 92.83693561 122.5091187 85.4753418 122.546875 C79.059929 122.57978787 72.64460304 122.61961508 66.22928602 122.66779006 C62.83155866 122.69306218 59.43388896 122.71484126 56.03609276 122.72834396 C52.24553249 122.74514421 48.45525309 122.77416448 44.66479492 122.80615234 C43.53479065 122.80831253 42.40478638 122.81047272 41.24053955 122.81269836 C40.20988876 122.82386185 39.17923798 122.83502533 38.11735535 122.8465271 C36.77199849 122.85482324 36.77199849 122.85482324 35.3994627 122.86328697 C32.84550629 122.98203112 32.84550629 122.98203112 30.125 125.125 C28.64 124.63 28.64 124.63 27.125 124.125 C28.2696875 122.949375 28.2696875 122.949375 29.4375 121.75 C35.65780951 114.16899779 35.83579718 104.52939341 35.125 95.125 C34.795 94.465 34.465 93.805 34.125 93.125 C23.29656635 109.41372892 9.125 130.8025882 9.125 151.125 C10.24519531 151.46273437 11.36539063 151.80046875 12.51953125 152.1484375 C13.99226636 152.59870046 15.46491831 153.04923553 16.9375 153.5 C17.67548828 153.72171875 18.41347656 153.9434375 19.17382812 154.171875 C19.88603516 154.39101562 20.59824219 154.61015625 21.33203125 154.8359375 C21.9866333 155.03493652 22.64123535 155.23393555 23.31567383 155.43896484 C25.125 156.125 25.125 156.125 28.125 158.125 C28.125 159.115 28.125 160.105 28.125 161.125 C3.705 161.125 -20.715 161.125 -45.875 161.125 C-42.20951998 157.45951998 -39.9497992 155.32533842 -35.6875 152.875 C-34.39779297 152.12476563 -34.39779297 152.12476563 -33.08203125 151.359375 C-28.65651072 148.88421661 -25.9457457 149.04321378 -20.875 149.125 C-20.6570928 147.34542452 -20.44118986 145.56559694 -20.23046875 143.78515625 C-19.98566656 141.95317499 -19.69368699 140.12708639 -19.36328125 138.30859375 C-14.14809565 106.98049303 -17.09008057 69.79284951 -28.875 40.125 C-36.42374595 54.49587463 -40.91703524 66.84024491 -36.4375 83.375 C-35.93868995 84.96540886 -35.42158845 86.55037215 -34.875 88.125 C-34.545 89.115 -34.215 90.105 -33.875 91.125 C-41.09318182 87.97496013 -45.19061044 81.33526562 -48.1484375 74.30078125 C-52.12191167 62.40172151 -50.06200471 49.888834 -44.7421875 38.75390625 C-44.45601562 38.21636719 -44.16984375 37.67882813 -43.875 37.125 C-53.11511524 39.21942612 -61.08726523 41.46894446 -68.875 47.125 C-69.51953125 47.57617188 -70.1640625 48.02734375 -70.828125 48.4921875 C-75.3707215 51.98801176 -77.95855565 56.15882548 -80.7109375 61.1484375 C-81.28714844 62.12683594 -81.28714844 62.12683594 -81.875 63.125 C-82.205 63.125 -82.535 63.125 -82.875 63.125 C-83.82792445 52.36754171 -81.10496325 43.65649814 -74.25 35.25 C-64.923088 25.57179188 -53.68013173 23.34453635 -40.875 22.125 C-50.7330833 17.55044422 -59.13927382 16.27659562 -69.875 16.125 C-65.74696381 11.68611771 -61.31052925 10.35512875 -55.40234375 9.796875 C-47.02040085 9.55812179 -40.49948626 10.71043691 -32.875 14.125 C-31.885 14.455 -30.895 14.785 -29.875 15.125 C-29.4625 14.60550781 -29.05 14.08601563 -28.625 13.55078125 C-20.6818692 3.9587416 -12.48874833 -0.27517581 0 0 Z " fill="#FDBC58" transform="translate(95.875,8.875)"/>
<path d="M0 0 C1.175625 0.01353516 1.175625 0.01353516 2.375 0.02734375 C4.29180055 0.05071937 6.20844191 0.08658347 8.125 0.125 C8.125 0.455 8.125 0.785 8.125 1.125 C7.51914063 1.27195312 6.91328125 1.41890625 6.2890625 1.5703125 C-4.44636659 4.44410429 -12.1018857 9.28855286 -18.875 18.125 C-18.13378906 17.83625 -17.39257812 17.5475 -16.62890625 17.25 C-5.45565988 13.31132808 6.3014711 11.86966111 17.625 16.125 C23.20249146 18.8135974 28.04218322 22.45450505 32.125 27.125 C32.125 27.785 32.125 28.445 32.125 29.125 C31.26003906 28.83625 30.39507812 28.5475 29.50390625 28.25 C15.84112748 24.22248691 0.12669127 22.98453713 -13.875 26.125 C-11.69818338 27.21595727 -9.5186879 28.29633537 -7.32421875 29.3515625 C0.14771027 33.13508526 7.08010618 37.96239731 10.125 46.125 C10.390625 49.69140625 10.390625 49.69140625 10.375 53.6875 C10.38660156 54.69586914 10.38660156 54.69586914 10.3984375 55.72460938 C10.38380148 59.40922836 10.22089902 60.98115148 8.125 64.125 C7.65449219 63.22136719 7.18398437 62.31773438 6.69921875 61.38671875 C6.07060122 60.19516014 5.44167891 59.00376228 4.8125 57.8125 C4.3494043 56.92014648 4.3494043 56.92014648 3.87695312 56.00976562 C2.24416424 52.93324762 0.64122006 50.51734462 -1.875 48.125 C-1.875 47.465 -1.875 46.805 -1.875 46.125 C-2.43445313 45.85558594 -2.99390625 45.58617187 -3.5703125 45.30859375 C-6.90049041 43.59834984 -10.05160248 41.61551478 -13.2421875 39.66015625 C-16.06215888 38.01587027 -18.94240716 36.55709709 -21.875 35.125 C-21.51148438 35.97578125 -21.14796875 36.8265625 -20.7734375 37.703125 C-13.89045858 54.29286905 -8.93420051 71.42460906 -5.875 89.125 C-5.72401855 89.99479492 -5.57303711 90.86458984 -5.41748047 91.76074219 C-2.41792933 109.86159342 -2.54638507 127.84389871 -2.875 146.125 C-2.215 146.125 -1.555 146.125 -0.875 146.125 C-0.76929687 145.45726562 -0.66359375 144.78953125 -0.5546875 144.1015625 C3.81935486 124.94627356 15.89305556 107.11826025 28.125 92.125 C29.13240751 90.79725458 30.13568608 89.46628138 31.125 88.125 C20.55159961 91.12079678 12.85230436 94.50312868 7.125 104.125 C6.795 104.125 6.465 104.125 6.125 104.125 C5.67134314 97.6603897 6.34733571 94.43414982 10.125 89.125 C14.56994315 84.26334343 20.99587728 82.96275928 27.125 81.125 C25.72970871 80.49879084 24.33373879 79.87409369 22.9375 79.25 C22.16019531 78.90195313 21.38289063 78.55390625 20.58203125 78.1953125 C19.77121094 77.84210938 18.96039063 77.48890625 18.125 77.125 C17.3515625 76.7640625 16.578125 76.403125 15.78125 76.03125 C12.42957717 74.88773809 9.34358774 74.69800492 5.8125 74.5 C4.55824219 74.42523438 3.30398437 74.35046875 2.01171875 74.2734375 C0.58279297 74.19996094 0.58279297 74.19996094 -0.875 74.125 C2.75356229 70.3409279 6.01065377 69.02132329 11.25 68.75 C18.90711914 68.92926366 26.59111125 71.781935 32.125 77.125 C30.4359852 70.20003934 26.04777745 65.98899802 21.125 61.125 C27.44270384 61.71728474 32.91206206 65.46929135 37.0625 70.125 C39.0790369 73.05814458 39.57620776 74.70515782 40.125 78.125 C41.30255859 78.07279297 41.30255859 78.07279297 42.50390625 78.01953125 C52.43773938 77.76356745 57.73688143 79.45767348 65.125 86.125 C64.135 86.62 64.135 86.62 63.125 87.125 C62.3 86.815625 61.475 86.50625 60.625 86.1875 C56.05783622 84.80103957 51.85944712 84.95658093 47.125 85.125 C47.99511719 85.54458984 47.99511719 85.54458984 48.8828125 85.97265625 C55.97424244 89.61198746 60.13585019 93.54453034 64 100.5 C65.88976351 106.58923799 66.11146144 112.33873097 63.125 118.125 C62.10014655 116.23296286 61.2055488 114.37091388 60.53515625 112.32421875 C57.61399708 103.42246152 52.20646988 98.57596184 44.125 94.125 C44.17140625 95.03121094 44.2178125 95.93742187 44.265625 96.87109375 C44.52667844 105.6816472 44.34428504 112.46528854 38.25390625 119.19140625 C34.63037811 122.58204222 32.12407062 124.42947713 27.125 125.125 C27.53492187 124.568125 27.94484375 124.01125 28.3671875 123.4375 C34.8894422 114.20023976 35.80535977 106.29555804 35.125 95.125 C34.795 94.465 34.465 93.805 34.125 93.125 C23.29656635 109.41372892 9.125 130.8025882 9.125 151.125 C10.24519531 151.46273437 11.36539063 151.80046875 12.51953125 152.1484375 C13.99226636 152.59870046 15.46491831 153.04923553 16.9375 153.5 C17.67548828 153.72171875 18.41347656 153.9434375 19.17382812 154.171875 C19.88603516 154.39101562 20.59824219 154.61015625 21.33203125 154.8359375 C21.9866333 155.03493652 22.64123535 155.23393555 23.31567383 155.43896484 C25.125 156.125 25.125 156.125 28.125 158.125 C28.125 159.115 28.125 160.105 28.125 161.125 C3.705 161.125 -20.715 161.125 -45.875 161.125 C-42.20951998 157.45951998 -39.9497992 155.32533842 -35.6875 152.875 C-34.39779297 152.12476563 -34.39779297 152.12476563 -33.08203125 151.359375 C-28.65651072 148.88421661 -25.9457457 149.04321378 -20.875 149.125 C-20.6570928 147.34542452 -20.44118986 145.56559694 -20.23046875 143.78515625 C-19.98566656 141.95317499 -19.69368699 140.12708639 -19.36328125 138.30859375 C-14.14809565 106.98049303 -17.09008057 69.79284951 -28.875 40.125 C-36.42374595 54.49587463 -40.91703524 66.84024491 -36.4375 83.375 C-35.93868995 84.96540886 -35.42158845 86.55037215 -34.875 88.125 C-34.545 89.115 -34.215 90.105 -33.875 91.125 C-41.09318182 87.97496013 -45.19061044 81.33526562 -48.1484375 74.30078125 C-52.12191167 62.40172151 -50.06200471 49.888834 -44.7421875 38.75390625 C-44.45601562 38.21636719 -44.16984375 37.67882813 -43.875 37.125 C-53.11511524 39.21942612 -61.08726523 41.46894446 -68.875 47.125 C-69.51953125 47.57617188 -70.1640625 48.02734375 -70.828125 48.4921875 C-75.3707215 51.98801176 -77.95855565 56.15882548 -80.7109375 61.1484375 C-81.28714844 62.12683594 -81.28714844 62.12683594 -81.875 63.125 C-82.205 63.125 -82.535 63.125 -82.875 63.125 C-83.82792445 52.36754171 -81.10496325 43.65649814 -74.25 35.25 C-64.923088 25.57179188 -53.68013173 23.34453635 -40.875 22.125 C-50.7330833 17.55044422 -59.13927382 16.27659562 -69.875 16.125 C-65.74696381 11.68611771 -61.31052925 10.35512875 -55.40234375 9.796875 C-47.02040085 9.55812179 -40.49948626 10.71043691 -32.875 14.125 C-31.885 14.455 -30.895 14.785 -29.875 15.125 C-29.4625 14.60550781 -29.05 14.08601563 -28.625 13.55078125 C-20.6818692 3.9587416 -12.48874833 -0.27517581 0 0 Z " fill="#282322" transform="translate(95.875,8.875)"/>
<path d="M0 0 C2.38144802 2.38144802 2.63759151 3.81574438 3.4375 7.05859375 C3.69273438 8.08533203 3.94796875 9.11207031 4.2109375 10.16992188 C4.60152344 11.78737305 4.60152344 11.78737305 5 13.4375 C5.39058594 15.00274414 5.39058594 15.00274414 5.7890625 16.59960938 C11.55034792 40.03756595 12.31271636 62.99300565 12 87 C11.67 85.68 11.34 84.36 11 83 C-6.49 83 -23.98 83 -42 83 C-42 63.19359083 -38.52364308 47.29289473 -29.4375 29.875 C-29.06157715 29.15199707 -28.6856543 28.42899414 -28.29833984 27.68408203 C-26.25738549 23.89986838 -24.27975723 20.87071722 -21 18 C-20.92523438 18.94359375 -20.85046875 19.8871875 -20.7734375 20.859375 C-19.68504383 31.48721911 -17.57985333 41.39273412 -9.125 48.75 C-8.09375 49.4925 -7.0625 50.235 -6 51 C-6.20496094 50.39671875 -6.40992188 49.7934375 -6.62109375 49.171875 C-6.89050781 48.37265625 -7.15992188 47.5734375 -7.4375 46.75 C-7.70433594 45.96109375 -7.97117188 45.1721875 -8.24609375 44.359375 C-12.26471639 31.78296011 -10.34722269 18.97246544 -4.65625 7.2265625 C-1.60732759 1.60732759 -1.60732759 1.60732759 0 0 Z " fill="#FCBB59" transform="translate(67,48)"/>
<path d="M0 0 C7.26 0 14.52 0 22 0 C20.35 1.65 18.7 3.3 17 5 C41.09 5.33 65.18 5.66 90 6 C89.15811388 2.52565835 89.15811388 2.52565835 85 0 C126.58 0 168.16 0 211 0 C211 2.31 211 4.62 211 7 C141.37 7 71.74 7 0 7 C0 4.69 0 2.38 0 0 Z " fill="#F6BA60" transform="translate(34,164)"/>
<path d="M0 0 C46.86 0.33 93.72 0.66 142 1 C142 3.31 142 5.62 142 8 C94.48 8 46.96 8 -2 8 C-1.34 5.36 -0.68 2.72 0 0 Z " fill="#FEC063" transform="translate(110,136)"/>
<path d="M0 0 C47.19 0 94.38 0 143 0 C143 1.98 143 3.96 143 6 C95.48 6 47.96 6 -1 6 C-0.67 4.02 -0.34 2.04 0 0 Z " fill="#FEBD59" transform="translate(106,151)"/>
<path d="M0 0 C3.96 0 7.92 0 12 0 C11.34 0.66 10.68 1.32 10 2 C9.53603307 4.89223503 9.53603307 4.89223503 9.375 8.125 C9.25125 10.06375 9.1275 12.0025 9 14 C13.62 14 18.24 14 23 14 C22.87625 12.06125 22.7525 10.1225 22.625 8.125 C22.55539063 7.03445312 22.48578125 5.94390625 22.4140625 4.8203125 C22.26746509 1.86953526 22.26746509 1.86953526 20 0 C23.96 0 27.92 0 32 0 C31.34 0.66 30.68 1.32 30 2 C29.68866414 4.58744439 29.68866414 4.58744439 29.734375 7.59375 C29.73179688 8.70621094 29.72921875 9.81867188 29.7265625 10.96484375 C29.73429687 12.13144531 29.74203125 13.29804688 29.75 14.5 C29.74226563 15.66660156 29.73453125 16.83320313 29.7265625 18.03515625 C29.73042969 19.70384766 29.73042969 19.70384766 29.734375 21.40625 C29.73663086 22.43041016 29.73888672 23.45457031 29.74121094 24.50976562 C29.75366928 27.17382203 29.75366928 27.17382203 32 29 C28.04 29 24.08 29 20 29 C20.66 28.34 21.32 27.68 22 27 C22.46290221 24.33757179 22.46290221 24.33757179 22.625 21.375 C22.810625 18.714375 22.810625 18.714375 23 16 C18.71 16 14.42 16 10 16 C10.33 20.29 10.66 24.58 11 29 C8.03 29 5.06 29 2 29 C2.01047363 28.19256348 2.02094727 27.38512695 2.03173828 26.55322266 C2.07319831 22.91051318 2.09929438 19.26785325 2.125 15.625 C2.14175781 14.35398438 2.15851563 13.08296875 2.17578125 11.7734375 C2.18222656 10.56171875 2.18867187 9.35 2.1953125 8.1015625 C2.20578613 6.98088379 2.21625977 5.86020508 2.22705078 4.70556641 C2.28055323 1.85022157 2.28055323 1.85022157 0 0 Z " fill="#1D1D1D" transform="translate(82,192)"/>
<path d="M0 0 C16.5 0 33 0 50 0 C50 2.97 50 5.94 50 9 C49.505 8.01 49.505 8.01 49 7 C32.83 7 16.66 7 0 7 C0 4.69 0 2.38 0 0 Z " fill="#FDC063" transform="translate(28,137)"/>
<path d="M0 0 C2.85086472 2.46745463 4.09631484 5.03857982 5.59375 8.47265625 C6.06683594 9.53677734 6.53992188 10.60089844 7.02734375 11.69726562 C8.01054945 13.94403409 8.9923165 16.19143267 9.97265625 18.43945312 C10.44574219 19.50228516 10.91882813 20.56511719 11.40625 21.66015625 C11.83228516 22.63605713 12.25832031 23.61195801 12.69726562 24.61743164 C13.91172448 27.27621131 13.91172448 27.27621131 17 29 C12.71 29 8.42 29 4 29 C4.66 28.67 5.32 28.34 6 28 C5.34 25.69 4.68 23.38 4 21 C-0.95 21.495 -0.95 21.495 -6 22 C-6.33 24.31 -6.66 26.62 -7 29 C-8.98 29 -10.96 29 -13 29 C-12.74831055 28.44127197 -12.49662109 27.88254395 -12.23730469 27.30688477 C-11.07464096 24.72552618 -9.91231888 22.14401388 -8.75 19.5625 C-8.35425781 18.68400391 -7.95851562 17.80550781 -7.55078125 16.90039062 C-5.01785546 11.27397349 -2.50022522 5.64102539 0 0 Z " fill="#0E0E0E" transform="translate(208,192)"/>
<path d="M0 0 C3.0625 1.375 3.0625 1.375 5 4 C5.69813581 7.47336991 5.69813581 10.52663009 5 14 C2.84393972 16.92111392 1.38677014 17.74170466 -2.16015625 18.40234375 C-6.36273064 18.68999909 -8.47837938 18.3406502 -12.0625 16 C-14.20766662 12.67845169 -14.7595293 10.82131981 -14.47265625 6.9375 C-12.67333459 -0.43823175 -6.39815803 -1.19170032 0 0 Z " fill="#F9F9F9" transform="translate(112,238)"/>
<path d="M0 0 C3.62039043 5.43058564 2.64222441 12.69210439 1.4296875 18.9375 C-0.84169534 26.97102247 -0.84169534 26.97102247 -4 30 C-7.13671875 30.390625 -7.13671875 30.390625 -10.6875 30.25 C-12.45673828 30.19585937 -12.45673828 30.19585937 -14.26171875 30.140625 C-15.16535156 30.09421875 -16.06898437 30.0478125 -17 30 C-6.42340106 8.36360725 -6.42340106 8.36360725 0 0 Z " fill="#FAB957" transform="translate(130,101)"/>
<path d="M0 0 C14.85 0 29.7 0 45 0 C44.67 1.98 44.34 3.96 44 6 C29.48 6 14.96 6 0 6 C0 4.02 0 2.04 0 0 Z " fill="#FEBC58" transform="translate(31,151)"/>
<path d="M0 0 C3.96 0 7.92 0 12 0 C12.12375 1.670625 12.12375 1.670625 12.25 3.375 C12.87919026 8.6151219 14.88630871 13.20241234 17 18 C19.16575619 14.75136571 20.62352411 11.39377143 22.125 7.8125 C22.40214844 7.15830078 22.67929688 6.50410156 22.96484375 5.83007812 C23.64597045 4.22120988 24.32335403 2.61075785 25 1 C24.34 0.67 23.68 0.34 23 0 C25.64 0 28.28 0 31 0 C30.55922119 0.37688965 30.11844238 0.7537793 29.66430664 1.14208984 C27.56135639 3.48966963 26.59560473 5.82305463 25.37109375 8.7265625 C24.89349609 9.8403125 24.41589844 10.9540625 23.92382812 12.1015625 C23.43333984 13.26429688 22.94285156 14.42703125 22.4375 15.625 C21.46302621 17.9322287 20.48285592 20.23706253 19.49609375 22.5390625 C19.06482178 23.56209473 18.6335498 24.58512695 18.18920898 25.63916016 C17 28 17 28 15 29 C14.65219482 28.22809326 14.30438965 27.45618652 13.94604492 26.66088867 C12.64870923 23.79023899 11.34533562 20.92243204 10.0378418 18.05639648 C9.47389208 16.81693767 8.912341 15.57638451 8.35327148 14.3347168 C7.5478708 12.54708524 6.73302712 10.76371767 5.91796875 8.98046875 C5.43094482 7.90692139 4.9439209 6.83337402 4.44213867 5.72729492 C3.03304564 2.73848797 3.03304564 2.73848797 0 0 Z " fill="#101010" transform="translate(153,192)"/>
<path d="M0 0 C8.58 0 17.16 0 26 0 C25.67 1.32 25.34 2.64 25 4 C24.67 3.67 24.34 3.34 24 3 C22.65252916 2.76924918 21.29622435 2.58846937 19.9375 2.4375 C18.638125 2.293125 17.33875 2.14875 16 2 C16.10948106 6.1255669 16.24020225 10.25018878 16.375 14.375 C16.4059375 15.550625 16.436875 16.72625 16.46875 17.9375 C16.50742187 19.05898437 16.54609375 20.18046875 16.5859375 21.3359375 C16.63306885 22.89127197 16.63306885 22.89127197 16.68115234 24.47802734 C16.75954472 27.16809835 16.75954472 27.16809835 19 29 C15.04 29 11.08 29 7 29 C7.66 28.34 8.32 27.68 9 27 C9.37173016 24.3817233 9.37173016 24.3817233 9.4140625 21.3359375 C9.45273437 20.21445313 9.49140625 19.09296875 9.53125 17.9375 C9.5621875 16.761875 9.593125 15.58625 9.625 14.375 C9.68300781 12.59996094 9.68300781 12.59996094 9.7421875 10.7890625 C9.83668845 7.85953309 9.92224558 4.93001403 10 2 C4.8306511 2.40556131 4.8306511 2.40556131 0 4 C0 2.68 0 1.36 0 0 Z " fill="#080808" transform="translate(43,192)"/>
<path d="M0 0 C3.96 0 7.92 0 12 0 C11.34 0.66 10.68 1.32 10 2 C9.68866414 4.58744439 9.68866414 4.58744439 9.734375 7.59375 C9.73179688 8.70621094 9.72921875 9.81867188 9.7265625 10.96484375 C9.73429687 12.13144531 9.74203125 13.29804688 9.75 14.5 C9.74226563 15.66660156 9.73453125 16.83320313 9.7265625 18.03515625 C9.72914062 19.14761719 9.73171875 20.26007813 9.734375 21.40625 C9.73663086 22.43041016 9.73888672 23.45457031 9.74121094 24.50976562 C9.75366928 27.17382203 9.75366928 27.17382203 12 29 C8.04 29 4.08 29 0 29 C0.66 28.34 1.32 27.68 2 27 C2.31133586 24.41255561 2.31133586 24.41255561 2.265625 21.40625 C2.26820312 20.29378906 2.27078125 19.18132812 2.2734375 18.03515625 C2.26570313 16.86855469 2.25796875 15.70195312 2.25 14.5 C2.26160156 12.75009766 2.26160156 12.75009766 2.2734375 10.96484375 C2.26957031 9.29615234 2.26957031 9.29615234 2.265625 7.59375 C2.26336914 6.56958984 2.26111328 5.54542969 2.25878906 4.49023438 C2.24633072 1.82617797 2.24633072 1.82617797 0 0 Z " fill="#090909" transform="translate(102,192)"/>
<path d="M0 0 C3.96 0 7.92 0 12 0 C11.34 0.66 10.68 1.32 10 2 C9.62792646 4.71615864 9.62792646 4.71615864 9.5859375 7.8828125 C9.52792969 9.63271484 9.52792969 9.63271484 9.46875 11.41796875 C9.4378125 12.64128906 9.406875 13.86460937 9.375 15.125 C9.31699219 16.97158203 9.31699219 16.97158203 9.2578125 18.85546875 C9.1633001 21.90349376 9.07774506 24.95150862 9 28 C9.99 28.33 10.98 28.66 12 29 C8.04 29 4.08 29 0 29 C0.66 28.34 1.32 27.68 2 27 C2.31133586 24.41255561 2.31133586 24.41255561 2.265625 21.40625 C2.26820313 20.29378906 2.27078125 19.18132812 2.2734375 18.03515625 C2.26570312 16.86855469 2.25796875 15.70195312 2.25 14.5 C2.26160156 12.75009766 2.26160156 12.75009766 2.2734375 10.96484375 C2.26957031 9.29615234 2.26957031 9.29615234 2.265625 7.59375 C2.26336914 6.56958984 2.26111328 5.54542969 2.25878906 4.49023438 C2.24633072 1.82617797 2.24633072 1.82617797 0 0 Z " fill="#0F0F0F" transform="translate(129,192)"/>
<path d="M0 0 C10.472 -0.3696 10.472 -0.3696 12.875 1.3125 C14 3 14 3 13.6875 6.1875 C13.460625 7.115625 13.23375 8.04375 13 9 C12.34 9 11.68 9 11 9 C12.98 11.97 14.96 14.94 17 18 C15.35 18 13.7 18 12 18 C9.35763149 15.28213525 7.53582868 12.45561452 6 9 C6.99 8.34 7.98 7.68 9 7 C8.67 5.35 8.34 3.7 8 2 C7.01 1.67 6.02 1.34 5 1 C5.33 6.61 5.66 12.22 6 18 C4.02 18 2.04 18 0 18 C0 12.06 0 6.12 0 0 Z " fill="#1B1B1B" transform="translate(155,238)"/>
<path d="M0 0 C3.63 0 7.26 0 11 0 C8.41874331 8.17397951 5.22988119 16.06640834 2 24 C1.34 24 0.68 24 0 24 C0 16.08 0 8.16 0 0 Z " fill="#E4B062" transform="translate(93,131)"/>
<path d="M0 0 C3.0625 1.375 3.0625 1.375 5 4 C5.69813581 7.47336991 5.69813581 10.52663009 5 14 C2.84393972 16.92111392 1.38677014 17.74170466 -2.16015625 18.40234375 C-6.36273064 18.68999909 -8.47837938 18.3406502 -12.0625 16 C-14.20766662 12.67845169 -14.7595293 10.82131981 -14.47265625 6.9375 C-12.67333459 -0.43823175 -6.39815803 -1.19170032 0 0 Z M-10 4 C-10.47440869 6.40513863 -10.47440869 6.40513863 -10.375 9 C-10.38273437 9.86625 -10.39046875 10.7325 -10.3984375 11.625 C-9.92757752 14.43169477 -9.26234706 15.3221828 -7 17 C-4.5 17.5 -4.5 17.5 -2 17 C0.26234706 15.3221828 0.92757752 14.43169477 1.3984375 11.625 C1.39070313 10.75875 1.38296875 9.8925 1.375 9 C1.38273437 8.13375 1.39046875 7.2675 1.3984375 6.375 C0.92757752 3.56830523 0.26234706 2.6778172 -2 1 C-5.90445933 0.4143311 -7.60721129 0.86886506 -10 4 Z " fill="#1A1A1A" transform="translate(112,238)"/>
<path d="M0 0 C7.26 0 14.52 0 22 0 C15 7 15 7 11.5234375 7.1953125 C10.14049032 7.18201493 8.75761346 7.15816232 7.375 7.125 C6.66859375 7.11597656 5.9621875 7.10695312 5.234375 7.09765625 C3.48943902 7.07407603 1.74467705 7.03820461 0 7 C0 4.69 0 2.38 0 0 Z " fill="#FDC36A" transform="translate(34,164)"/>
<path d="M0 0 C1.65 0 3.3 0 5 0 C5.06058594 1.07121094 5.12117187 2.14242187 5.18359375 3.24609375 C5.26798537 4.64324391 5.35263406 6.04037857 5.4375 7.4375 C5.47681641 8.14455078 5.51613281 8.85160156 5.55664062 9.58007812 C5.47624438 13.08690419 5.47624438 13.08690419 7 16 C9.31 16 11.62 16 14 16 C14 10.72 14 5.44 14 0 C14.99 0 15.98 0 17 0 C17.10823773 2.24893954 17.18569645 4.49937575 17.25 6.75 C17.29640625 8.00296875 17.3428125 9.2559375 17.390625 10.546875 C17 14 17 14 15.26953125 16.421875 C12.73666421 18.18311129 11.4907421 18.54132984 8.4375 18.5 C7.67308594 18.5103125 6.90867188 18.520625 6.12109375 18.53125 C4 18 4 18 2.265625 16.421875 C0.56138622 13.16067734 0.48202531 10.41174659 0.3125 6.75 C0.24675781 5.48671875 0.18101563 4.2234375 0.11328125 2.921875 C0.07589844 1.95765625 0.03851563 0.9934375 0 0 Z " fill="#1F1F1F" transform="translate(127,238)"/>
<path d="M0 0 C-0.33 0.99 -0.66 1.98 -1 3 C-2.98 2.34 -4.96 1.68 -7 1 C-5.95690161 4.75515421 -5.27186141 5.83144593 -1.875 7.9375 C-0.92625 8.618125 0.0225 9.29875 1 10 C1.5 13.125 1.5 13.125 1 16 C-1 18 -1 18 -3.1640625 18.1953125 C-3.97617188 18.17210937 -4.78828125 18.14890625 -5.625 18.125 C-6.44226563 18.10695313 -7.25953125 18.08890625 -8.1015625 18.0703125 C-8.72804687 18.04710937 -9.35453125 18.02390625 -10 18 C-10.33 16.35 -10.66 14.7 -11 13 C-10.608125 13.495 -10.21625 13.99 -9.8125 14.5 C-7.44908285 16.45593143 -5.98564997 16.24207973 -3 16 C-3.04768403 14.12119128 -3.04768403 14.12119128 -4 12 C-4.99 11.360625 -5.98 10.72125 -7 10.0625 C-10 8 -10 8 -11.0625 5.4375 C-11 3 -11 3 -10.0625 1.1875 C-6.76781888 -0.70943762 -3.75761536 -0.18480076 0 0 Z " fill="#1A1A1A" transform="translate(191,238)"/>
<path d="M0 0 C5.28 0 10.56 0 16 0 C15.67 0.66 15.34 1.32 15 2 C13.35 1.67 11.7 1.34 10 1 C10.33 6.61 10.66 12.22 11 18 C9.02 18 7.04 18 5 18 C5.33 12.39 5.66 6.78 6 1 C4.02 1.33 2.04 1.66 0 2 C0 1.34 0 0.68 0 0 Z " fill="#1B1B1B" transform="translate(73,238)"/>
<path d="M0 0 C1.32 0 2.64 0 4 0 C4.33 5.61 4.66 11.22 5 17 C3.02 17 1.04 17 -1 17 C-0.67 11.39 -0.34 5.78 0 0 Z " fill="#0D0D0D" transform="translate(156,239)"/>
<path d="M0 0 C3.63 0 7.26 0 11 0 C10.34 1.98 9.68 3.96 9 6 C6.03 6 3.06 6 0 6 C0 4.02 0 2.04 0 0 Z " fill="#FBFBFB" transform="translate(93,131)"/>
<path d="M0 0 C2.64 0 5.28 0 8 0 C7.57074219 0.34675781 7.14148438 0.69351563 6.69921875 1.05078125 C4.33094631 3.76748917 3.15315202 6.88717885 1.8125 10.1875 C1.53986328 10.84169922 1.26722656 11.49589844 0.98632812 12.16992188 C0.31760202 13.77721092 -0.34209925 15.38824962 -1 17 C-1.99 17 -2.98 17 -4 17 C-2.25192871 11.53262809 -0.34205919 6.24175152 2 1 C1.34 0.67 0.68 0.34 0 0 Z " fill="#1D1D1D" transform="translate(176,192)"/>
<path d="M0 0 C0.06058594 0.75925781 0.12117188 1.51851562 0.18359375 2.30078125 C0.26738281 3.29464844 0.35117188 4.28851563 0.4375 5.3125 C0.51871094 6.29863281 0.59992188 7.28476563 0.68359375 8.30078125 C0.91812559 11.09375599 0.91812559 11.09375599 2 14 C0.125 13.6875 0.125 13.6875 -2 13 C-4.72286806 8.91569792 -4.38524534 6.85409123 -4 2 C-1 0 -1 0 0 0 Z " fill="#0D0D0D" transform="translate(102,241)"/>
<path d="M0 0 C0.66 0 1.32 0 2 0 C2.99 2.97 3.98 5.94 5 9 C2.36 9 -0.28 9 -3 9 C-2.01 6.03 -1.02 3.06 0 0 Z " fill="#E4E4E4" transform="translate(206,202)"/>
<path d="M0 0 C0.66 0 1.32 0 2 0 C2.06058594 1.05960938 2.12117188 2.11921875 2.18359375 3.2109375 C2.26800127 4.59897221 2.35264917 5.98699232 2.4375 7.375 C2.47681641 8.07367188 2.51613281 8.77234375 2.55664062 9.4921875 C2.74280134 13.37360492 2.74280134 13.37360492 4 17 C2.02 17 0.04 17 -2 17 C-1.67 16.34 -1.34 15.68 -1 15 C-0.76827173 12.45384991 -0.58105471 9.92603775 -0.4375 7.375 C-0.39431641 6.66859375 -0.35113281 5.9621875 -0.30664062 5.234375 C-0.20055249 3.48981463 -0.09977111 1.74493303 0 0 Z " fill="#040404" transform="translate(80,239)"/>
<path d="M0 0 C1.32 0.33 2.64 0.66 4 1 C4.33 2.65 4.66 4.3 5 6 C2.525 7.485 2.525 7.485 0 9 C0 6.03 0 3.06 0 0 Z " fill="#EFEFEF" transform="translate(160,239)"/>
<path d="M0 0 C0.66 0.33 1.32 0.66 2 1 C1.67 4.3 1.34 7.6 1 11 C-0.98 11 -2.96 11 -5 11 C-3.35 7.37 -1.7 3.74 0 0 Z " fill="#161616" transform="translate(200,210)"/>
<path d="M0 0 C1.32 0.33 2.64 0.66 4 1 C3.34 1 2.68 1 2 1 C1.896875 1.763125 1.79375 2.52625 1.6875 3.3125 C0.95635961 6.17059424 0.23048087 7.15742885 -2 9 C-2.33 8.34 -2.66 7.68 -3 7 C-2.06421005 4.64018187 -1.06652192 2.30368736 0 0 Z " fill="#1C1C1C" transform="translate(204,201)"/>
<path d="M0 0 C1.32 0 2.64 0 4 0 C3.67 1.98 3.34 3.96 3 6 C2.01 6.33 1.02 6.66 0 7 C0 4.69 0 2.38 0 0 Z " fill="#F8F7F7" transform="translate(94,144)"/>
<path d="M0 0 C2.64 0 5.28 0 8 0 C7.54625 0.433125 7.0925 0.86625 6.625 1.3125 C4.79975666 3.10798342 4.79975666 3.10798342 3 6 C2.34 6 1.68 6 1 6 C1.33 4.35 1.66 2.7 2 1 C1.34 0.67 0.68 0.34 0 0 Z " fill="#282828" transform="translate(176,192)"/>
<path d="M0 0 C0.391875 0.495 0.78375 0.99 1.1875 1.5 C2.94222862 3.22684461 2.94222862 3.22684461 5.5625 3.3125 C8.17796419 3.22966747 8.17796419 3.22966747 10 1 C10.33 1.99 10.66 2.98 11 4 C10 5 10 5 7.93359375 5.09765625 C7.10988281 5.08605469 6.28617188 5.07445312 5.4375 5.0625 C4.61121094 5.05347656 3.78492188 5.04445313 2.93359375 5.03515625 C2.29550781 5.02355469 1.65742188 5.01195312 1 5 C0.67 3.35 0.34 1.7 0 0 Z " fill="#313131" transform="translate(180,251)"/>
<path d="M0 0 C-0.33 1.32 -0.66 2.64 -1 4 C-1.33 3.67 -1.66 3.34 -2 3 C-3.34747084 2.76924918 -4.70377565 2.58846937 -6.0625 2.4375 C-7.361875 2.293125 -8.66125 2.14875 -10 2 C-10 1.67 -10 1.34 -10 1 C-6.56484998 0.37542727 -3.50935186 0 0 0 Z " fill="#0C0C0C" transform="translate(69,192)"/>
</svg>
